<mxfile host="Electron" modified="2024-02-27T11:26:47.432Z" agent="Mozilla/5.0 (Windows NT 10.0; Win64; x64) AppleWebKit/537.36 (KHTML, like Gecko) draw.io/23.1.5 Chrome/120.0.6099.109 Electron/28.1.0 Safari/537.36" etag="twtP_pCEoSVIt9zM24Fc" version="23.1.5" type="device">
  <diagram name="Page-1" id="MbhGSACNb4gu_uGpFhin">
    <mxGraphModel dx="1434" dy="836" grid="1" gridSize="10" guides="1" tooltips="1" connect="1" arrows="1" fold="1" page="1" pageScale="1" pageWidth="827" pageHeight="1169" background="none" math="0" shadow="0">
      <root>
        <mxCell id="0" />
        <mxCell id="1" parent="0" />
        <mxCell id="acNoMvWJMsMCijYzbIam-12" style="edgeStyle=orthogonalEdgeStyle;rounded=0;orthogonalLoop=1;jettySize=auto;html=1;exitX=0.5;exitY=1;exitDx=0;exitDy=0;entryX=0.5;entryY=0;entryDx=0;entryDy=0;" parent="1" source="acNoMvWJMsMCijYzbIam-1" target="acNoMvWJMsMCijYzbIam-8" edge="1">
          <mxGeometry relative="1" as="geometry">
            <Array as="points">
              <mxPoint x="284" y="220" />
              <mxPoint x="284" y="220" />
            </Array>
          </mxGeometry>
        </mxCell>
        <mxCell id="acNoMvWJMsMCijYzbIam-13" style="edgeStyle=orthogonalEdgeStyle;rounded=0;orthogonalLoop=1;jettySize=auto;html=1;exitX=0.5;exitY=1;exitDx=0;exitDy=0;entryX=0.5;entryY=0;entryDx=0;entryDy=0;" parent="1" source="acNoMvWJMsMCijYzbIam-1" target="acNoMvWJMsMCijYzbIam-2" edge="1">
          <mxGeometry relative="1" as="geometry" />
        </mxCell>
        <mxCell id="acNoMvWJMsMCijYzbIam-24" style="edgeStyle=orthogonalEdgeStyle;rounded=0;orthogonalLoop=1;jettySize=auto;html=1;exitX=0.5;exitY=1;exitDx=0;exitDy=0;entryX=0.5;entryY=0;entryDx=0;entryDy=0;" parent="1" source="acNoMvWJMsMCijYzbIam-1" target="acNoMvWJMsMCijYzbIam-25" edge="1">
          <mxGeometry relative="1" as="geometry">
            <mxPoint x="444" y="260" as="targetPoint" />
            <Array as="points">
              <mxPoint x="284" y="240" />
              <mxPoint x="444" y="240" />
            </Array>
          </mxGeometry>
        </mxCell>
        <mxCell id="acNoMvWJMsMCijYzbIam-1" value="Create Binary Tables" style="rounded=1;whiteSpace=wrap;html=1;fillColor=#fff2cc;strokeColor=#d6b656;" parent="1" vertex="1">
          <mxGeometry x="224" y="160" width="120" height="60" as="geometry" />
        </mxCell>
        <mxCell id="acNoMvWJMsMCijYzbIam-22" style="edgeStyle=orthogonalEdgeStyle;rounded=0;orthogonalLoop=1;jettySize=auto;html=1;exitX=0.5;exitY=1;exitDx=0;exitDy=0;entryX=0.5;entryY=0;entryDx=0;entryDy=0;" parent="1" source="acNoMvWJMsMCijYzbIam-2" target="acNoMvWJMsMCijYzbIam-10" edge="1">
          <mxGeometry relative="1" as="geometry" />
        </mxCell>
        <mxCell id="acNoMvWJMsMCijYzbIam-2" value="Prokka&lt;br&gt;&lt;font style=&quot;font-size: 10px;&quot;&gt;(Annotation)&lt;/font&gt;" style="whiteSpace=wrap;html=1;rounded=1;fillColor=#fff2cc;strokeColor=#d6b656;" parent="1" vertex="1">
          <mxGeometry x="64" y="260" width="120" height="60" as="geometry" />
        </mxCell>
        <mxCell id="acNoMvWJMsMCijYzbIam-21" style="edgeStyle=orthogonalEdgeStyle;rounded=0;orthogonalLoop=1;jettySize=auto;html=1;exitX=0.5;exitY=1;exitDx=0;exitDy=0;" parent="1" source="acNoMvWJMsMCijYzbIam-8" target="acNoMvWJMsMCijYzbIam-19" edge="1">
          <mxGeometry relative="1" as="geometry">
            <Array as="points">
              <mxPoint x="284" y="460" />
              <mxPoint x="204" y="460" />
            </Array>
          </mxGeometry>
        </mxCell>
        <mxCell id="acNoMvWJMsMCijYzbIam-8" value="Snippy&lt;br&gt;&lt;font style=&quot;font-size: 10px;&quot;&gt;(Variant Calling)&lt;/font&gt;" style="rounded=1;whiteSpace=wrap;html=1;fillColor=#fff2cc;strokeColor=#d6b656;" parent="1" vertex="1">
          <mxGeometry x="224" y="310" width="120" height="60" as="geometry" />
        </mxCell>
        <mxCell id="acNoMvWJMsMCijYzbIam-23" style="edgeStyle=orthogonalEdgeStyle;rounded=0;orthogonalLoop=1;jettySize=auto;html=1;exitX=0.5;exitY=1;exitDx=0;exitDy=0;entryX=0.5;entryY=0;entryDx=0;entryDy=0;" parent="1" source="acNoMvWJMsMCijYzbIam-10" target="acNoMvWJMsMCijYzbIam-19" edge="1">
          <mxGeometry relative="1" as="geometry" />
        </mxCell>
        <mxCell id="acNoMvWJMsMCijYzbIam-10" value="Panaroo&lt;br&gt;&lt;font style=&quot;font-size: 10px;&quot;&gt;(Gene Presence Absence)&lt;/font&gt;" style="whiteSpace=wrap;html=1;rounded=1;fillColor=#fff2cc;strokeColor=#d6b656;" parent="1" vertex="1">
          <mxGeometry x="64" y="350" width="120" height="60" as="geometry" />
        </mxCell>
        <mxCell id="EttusDQc6cs6hr2crV58-27" style="edgeStyle=orthogonalEdgeStyle;rounded=0;orthogonalLoop=1;jettySize=auto;html=1;exitX=0.75;exitY=1;exitDx=0;exitDy=0;strokeColor=#009900;entryX=0.25;entryY=0;entryDx=0;entryDy=0;" parent="1" source="acNoMvWJMsMCijYzbIam-19" target="EttusDQc6cs6hr2crV58-15" edge="1">
          <mxGeometry relative="1" as="geometry">
            <Array as="points">
              <mxPoint x="235" y="570" />
              <mxPoint x="235" y="680" />
              <mxPoint x="684" y="680" />
            </Array>
          </mxGeometry>
        </mxCell>
        <mxCell id="EttusDQc6cs6hr2crV58-38" style="edgeStyle=orthogonalEdgeStyle;rounded=0;orthogonalLoop=1;jettySize=auto;html=1;exitX=0.5;exitY=1;exitDx=0;exitDy=0;entryX=0.25;entryY=0;entryDx=0;entryDy=0;strokeColor=#009900;" parent="1" source="acNoMvWJMsMCijYzbIam-19" target="EttusDQc6cs6hr2crV58-21" edge="1">
          <mxGeometry relative="1" as="geometry">
            <Array as="points">
              <mxPoint x="204" y="700" />
              <mxPoint x="294" y="700" />
            </Array>
          </mxGeometry>
        </mxCell>
        <mxCell id="EttusDQc6cs6hr2crV58-49" style="edgeStyle=orthogonalEdgeStyle;rounded=0;orthogonalLoop=1;jettySize=auto;html=1;exitX=0.25;exitY=1;exitDx=0;exitDy=0;entryX=0.25;entryY=0;entryDx=0;entryDy=0;strokeColor=#009900;" parent="1" source="acNoMvWJMsMCijYzbIam-19" target="EttusDQc6cs6hr2crV58-48" edge="1">
          <mxGeometry relative="1" as="geometry">
            <Array as="points">
              <mxPoint x="174" y="600" />
              <mxPoint x="84" y="600" />
            </Array>
          </mxGeometry>
        </mxCell>
        <mxCell id="acNoMvWJMsMCijYzbIam-19" value="Genotype Binary Table" style="whiteSpace=wrap;html=1;rounded=1;fillColor=#fff2cc;strokeColor=#d6b656;" parent="1" vertex="1">
          <mxGeometry x="144" y="510" width="120" height="60" as="geometry" />
        </mxCell>
        <mxCell id="EttusDQc6cs6hr2crV58-35" style="edgeStyle=orthogonalEdgeStyle;rounded=0;orthogonalLoop=1;jettySize=auto;html=1;exitX=0.75;exitY=1;exitDx=0;exitDy=0;entryX=0.5;entryY=0;entryDx=0;entryDy=0;strokeColor=#0000FF;" parent="1" source="acNoMvWJMsMCijYzbIam-25" target="EttusDQc6cs6hr2crV58-15" edge="1">
          <mxGeometry relative="1" as="geometry">
            <Array as="points">
              <mxPoint x="464" y="570" />
              <mxPoint x="464" y="660" />
              <mxPoint x="714" y="660" />
            </Array>
          </mxGeometry>
        </mxCell>
        <mxCell id="EttusDQc6cs6hr2crV58-39" style="edgeStyle=orthogonalEdgeStyle;rounded=0;orthogonalLoop=1;jettySize=auto;html=1;entryX=0.75;entryY=0;entryDx=0;entryDy=0;strokeColor=#0000FF;" parent="1" target="EttusDQc6cs6hr2crV58-21" edge="1">
          <mxGeometry relative="1" as="geometry">
            <mxPoint x="424" y="570" as="sourcePoint" />
            <Array as="points">
              <mxPoint x="424" y="660" />
              <mxPoint x="354" y="660" />
            </Array>
          </mxGeometry>
        </mxCell>
        <mxCell id="acNoMvWJMsMCijYzbIam-25" value="Phenotype Binary Table" style="whiteSpace=wrap;html=1;rounded=1;fillColor=#fff2cc;strokeColor=#d6b656;" parent="1" vertex="1">
          <mxGeometry x="384" y="510" width="120" height="60" as="geometry" />
        </mxCell>
        <mxCell id="EttusDQc6cs6hr2crV58-4" value="" style="edgeStyle=orthogonalEdgeStyle;rounded=0;orthogonalLoop=1;jettySize=auto;html=1;" parent="1" source="EttusDQc6cs6hr2crV58-1" target="EttusDQc6cs6hr2crV58-3" edge="1">
          <mxGeometry relative="1" as="geometry" />
        </mxCell>
        <mxCell id="EttusDQc6cs6hr2crV58-1" value="Panacota Pipeline" style="rounded=1;whiteSpace=wrap;html=1;fillColor=#fff2cc;strokeColor=#d6b656;" parent="1" vertex="1">
          <mxGeometry x="549" y="160" width="120" height="60" as="geometry" />
        </mxCell>
        <mxCell id="EttusDQc6cs6hr2crV58-6" value="" style="edgeStyle=orthogonalEdgeStyle;rounded=0;orthogonalLoop=1;jettySize=auto;html=1;" parent="1" source="EttusDQc6cs6hr2crV58-3" target="EttusDQc6cs6hr2crV58-5" edge="1">
          <mxGeometry relative="1" as="geometry" />
        </mxCell>
        <mxCell id="EttusDQc6cs6hr2crV58-3" value="annotate" style="rounded=1;whiteSpace=wrap;html=1;fillColor=#fff2cc;strokeColor=#d6b656;" parent="1" vertex="1">
          <mxGeometry x="549" y="230" width="120" height="60" as="geometry" />
        </mxCell>
        <mxCell id="EttusDQc6cs6hr2crV58-8" value="" style="edgeStyle=orthogonalEdgeStyle;rounded=0;orthogonalLoop=1;jettySize=auto;html=1;" parent="1" source="EttusDQc6cs6hr2crV58-5" target="EttusDQc6cs6hr2crV58-7" edge="1">
          <mxGeometry relative="1" as="geometry" />
        </mxCell>
        <mxCell id="EttusDQc6cs6hr2crV58-5" value="pangenome" style="rounded=1;whiteSpace=wrap;html=1;fillColor=#fff2cc;strokeColor=#d6b656;" parent="1" vertex="1">
          <mxGeometry x="549" y="300" width="120" height="60" as="geometry" />
        </mxCell>
        <mxCell id="EttusDQc6cs6hr2crV58-10" value="" style="edgeStyle=orthogonalEdgeStyle;rounded=0;orthogonalLoop=1;jettySize=auto;html=1;" parent="1" source="EttusDQc6cs6hr2crV58-7" target="EttusDQc6cs6hr2crV58-9" edge="1">
          <mxGeometry relative="1" as="geometry" />
        </mxCell>
        <mxCell id="EttusDQc6cs6hr2crV58-7" value="corepers" style="rounded=1;whiteSpace=wrap;html=1;fillColor=#fff2cc;strokeColor=#d6b656;" parent="1" vertex="1">
          <mxGeometry x="549" y="370" width="120" height="60" as="geometry" />
        </mxCell>
        <mxCell id="EttusDQc6cs6hr2crV58-12" value="" style="edgeStyle=orthogonalEdgeStyle;rounded=0;orthogonalLoop=1;jettySize=auto;html=1;" parent="1" source="EttusDQc6cs6hr2crV58-9" target="EttusDQc6cs6hr2crV58-11" edge="1">
          <mxGeometry relative="1" as="geometry" />
        </mxCell>
        <mxCell id="EttusDQc6cs6hr2crV58-9" value="align" style="rounded=1;whiteSpace=wrap;html=1;fillColor=#fff2cc;strokeColor=#d6b656;" parent="1" vertex="1">
          <mxGeometry x="549" y="440" width="120" height="60" as="geometry" />
        </mxCell>
        <mxCell id="EttusDQc6cs6hr2crV58-28" style="edgeStyle=orthogonalEdgeStyle;rounded=0;orthogonalLoop=1;jettySize=auto;html=1;exitX=0.75;exitY=1;exitDx=0;exitDy=0;entryX=0.75;entryY=0;entryDx=0;entryDy=0;strokeColor=#FF0000;" parent="1" source="EttusDQc6cs6hr2crV58-11" target="EttusDQc6cs6hr2crV58-15" edge="1">
          <mxGeometry relative="1" as="geometry">
            <Array as="points">
              <mxPoint x="639" y="640" />
              <mxPoint x="744" y="640" />
            </Array>
          </mxGeometry>
        </mxCell>
        <mxCell id="EttusDQc6cs6hr2crV58-50" style="edgeStyle=orthogonalEdgeStyle;rounded=0;orthogonalLoop=1;jettySize=auto;html=1;exitX=0.25;exitY=1;exitDx=0;exitDy=0;entryX=0.75;entryY=0;entryDx=0;entryDy=0;strokeColor=#FF0000;" parent="1" source="EttusDQc6cs6hr2crV58-11" target="EttusDQc6cs6hr2crV58-48" edge="1">
          <mxGeometry relative="1" as="geometry">
            <Array as="points">
              <mxPoint x="579" y="620" />
              <mxPoint x="144" y="620" />
            </Array>
          </mxGeometry>
        </mxCell>
        <mxCell id="mEclXkI39ju033VUoXED-2" style="edgeStyle=orthogonalEdgeStyle;rounded=0;orthogonalLoop=1;jettySize=auto;html=1;exitX=0.5;exitY=1;exitDx=0;exitDy=0;entryX=1;entryY=0.5;entryDx=0;entryDy=0;" edge="1" parent="1" source="EttusDQc6cs6hr2crV58-11" target="EttusDQc6cs6hr2crV58-72">
          <mxGeometry relative="1" as="geometry" />
        </mxCell>
        <mxCell id="EttusDQc6cs6hr2crV58-11" value="tree" style="rounded=1;whiteSpace=wrap;html=1;fillColor=#fff2cc;strokeColor=#d6b656;" parent="1" vertex="1">
          <mxGeometry x="549" y="510" width="120" height="60" as="geometry" />
        </mxCell>
        <mxCell id="EttusDQc6cs6hr2crV58-15" value="GWAS" style="rounded=1;whiteSpace=wrap;html=1;fillColor=#fff2cc;strokeColor=#d6b656;" parent="1" vertex="1">
          <mxGeometry x="654" y="720" width="120" height="60" as="geometry" />
        </mxCell>
        <mxCell id="EttusDQc6cs6hr2crV58-59" style="edgeStyle=orthogonalEdgeStyle;rounded=0;orthogonalLoop=1;jettySize=auto;html=1;exitX=0.25;exitY=1;exitDx=0;exitDy=0;entryX=0.5;entryY=0;entryDx=0;entryDy=0;" parent="1" source="EttusDQc6cs6hr2crV58-21" target="EttusDQc6cs6hr2crV58-60" edge="1">
          <mxGeometry relative="1" as="geometry">
            <mxPoint x="104" y="820" as="targetPoint" />
            <Array as="points">
              <mxPoint x="294" y="800" />
              <mxPoint x="144" y="800" />
            </Array>
          </mxGeometry>
        </mxCell>
        <mxCell id="EttusDQc6cs6hr2crV58-62" value="" style="edgeStyle=orthogonalEdgeStyle;rounded=0;orthogonalLoop=1;jettySize=auto;html=1;" parent="1" source="EttusDQc6cs6hr2crV58-21" target="EttusDQc6cs6hr2crV58-61" edge="1">
          <mxGeometry relative="1" as="geometry" />
        </mxCell>
        <mxCell id="EttusDQc6cs6hr2crV58-63" style="edgeStyle=orthogonalEdgeStyle;rounded=0;orthogonalLoop=1;jettySize=auto;html=1;exitX=0.75;exitY=1;exitDx=0;exitDy=0;entryX=0.5;entryY=0;entryDx=0;entryDy=0;" parent="1" source="EttusDQc6cs6hr2crV58-21" target="EttusDQc6cs6hr2crV58-64" edge="1">
          <mxGeometry relative="1" as="geometry">
            <mxPoint x="504" y="820" as="targetPoint" />
            <Array as="points">
              <mxPoint x="354" y="800" />
              <mxPoint x="504" y="800" />
            </Array>
          </mxGeometry>
        </mxCell>
        <mxCell id="EttusDQc6cs6hr2crV58-21" value="Machine Learning" style="rounded=1;whiteSpace=wrap;html=1;fillColor=#fff2cc;strokeColor=#d6b656;" parent="1" vertex="1">
          <mxGeometry x="264" y="720" width="120" height="60" as="geometry" />
        </mxCell>
        <mxCell id="EttusDQc6cs6hr2crV58-51" style="edgeStyle=orthogonalEdgeStyle;rounded=0;orthogonalLoop=1;jettySize=auto;html=1;exitX=0.5;exitY=1;exitDx=0;exitDy=0;entryX=0;entryY=0.5;entryDx=0;entryDy=0;" parent="1" source="EttusDQc6cs6hr2crV58-48" target="EttusDQc6cs6hr2crV58-21" edge="1">
          <mxGeometry relative="1" as="geometry" />
        </mxCell>
        <mxCell id="EttusDQc6cs6hr2crV58-48" value="PRPS&lt;br&gt;&lt;font style=&quot;font-size: 10px;&quot;&gt;(Phylogeny Related Parallelism Score)&lt;/font&gt;" style="rounded=1;whiteSpace=wrap;html=1;fillColor=#fff2cc;strokeColor=#d6b656;" parent="1" vertex="1">
          <mxGeometry x="54" y="640" width="120" height="60" as="geometry" />
        </mxCell>
        <mxCell id="EttusDQc6cs6hr2crV58-52" value="&lt;font style=&quot;font-size: 20px;&quot;&gt;Single Reference Antimicrobial Resistance Pipeline Flowchart&lt;/font&gt;" style="text;html=1;align=center;verticalAlign=middle;resizable=0;points=[];autosize=1;strokeColor=none;fillColor=none;" parent="1" vertex="1">
          <mxGeometry x="129" y="10" width="570" height="40" as="geometry" />
        </mxCell>
        <mxCell id="EttusDQc6cs6hr2crV58-67" style="edgeStyle=orthogonalEdgeStyle;rounded=0;orthogonalLoop=1;jettySize=auto;html=1;exitX=0.5;exitY=1;exitDx=0;exitDy=0;entryX=0.25;entryY=0;entryDx=0;entryDy=0;" parent="1" source="EttusDQc6cs6hr2crV58-60" target="EttusDQc6cs6hr2crV58-66" edge="1">
          <mxGeometry relative="1" as="geometry">
            <Array as="points">
              <mxPoint x="144" y="900" />
              <mxPoint x="294" y="900" />
            </Array>
          </mxGeometry>
        </mxCell>
        <mxCell id="EttusDQc6cs6hr2crV58-60" value="Support Vector Machine" style="rounded=1;whiteSpace=wrap;html=1;fillColor=#fff2cc;strokeColor=#d6b656;" parent="1" vertex="1">
          <mxGeometry x="84" y="820" width="120" height="60" as="geometry" />
        </mxCell>
        <mxCell id="EttusDQc6cs6hr2crV58-68" style="edgeStyle=orthogonalEdgeStyle;rounded=0;orthogonalLoop=1;jettySize=auto;html=1;exitX=0.5;exitY=1;exitDx=0;exitDy=0;entryX=0.5;entryY=0;entryDx=0;entryDy=0;" parent="1" source="EttusDQc6cs6hr2crV58-61" target="EttusDQc6cs6hr2crV58-66" edge="1">
          <mxGeometry relative="1" as="geometry" />
        </mxCell>
        <mxCell id="EttusDQc6cs6hr2crV58-61" value="Random Forest" style="rounded=1;whiteSpace=wrap;html=1;fillColor=#fff2cc;strokeColor=#d6b656;" parent="1" vertex="1">
          <mxGeometry x="264" y="820" width="120" height="60" as="geometry" />
        </mxCell>
        <mxCell id="EttusDQc6cs6hr2crV58-69" style="edgeStyle=orthogonalEdgeStyle;rounded=0;orthogonalLoop=1;jettySize=auto;html=1;exitX=0.5;exitY=1;exitDx=0;exitDy=0;entryX=0.75;entryY=0;entryDx=0;entryDy=0;" parent="1" source="EttusDQc6cs6hr2crV58-64" target="EttusDQc6cs6hr2crV58-66" edge="1">
          <mxGeometry relative="1" as="geometry">
            <Array as="points">
              <mxPoint x="504" y="900" />
              <mxPoint x="354" y="900" />
            </Array>
          </mxGeometry>
        </mxCell>
        <mxCell id="EttusDQc6cs6hr2crV58-64" value="Gradient Boosting" style="rounded=1;whiteSpace=wrap;html=1;fillColor=#fff2cc;strokeColor=#d6b656;" parent="1" vertex="1">
          <mxGeometry x="444" y="820" width="120" height="60" as="geometry" />
        </mxCell>
        <mxCell id="hFegTtOwy7nXW7bJ5HmI-2" style="edgeStyle=orthogonalEdgeStyle;rounded=0;orthogonalLoop=1;jettySize=auto;html=1;entryX=0.5;entryY=0;entryDx=0;entryDy=0;" parent="1" source="EttusDQc6cs6hr2crV58-66" target="hFegTtOwy7nXW7bJ5HmI-1" edge="1">
          <mxGeometry relative="1" as="geometry" />
        </mxCell>
        <mxCell id="EttusDQc6cs6hr2crV58-66" value="Parameter optimization with AutoSklearn" style="rounded=1;whiteSpace=wrap;html=1;fillColor=#fff2cc;strokeColor=#d6b656;" parent="1" vertex="1">
          <mxGeometry x="264" y="920" width="120" height="60" as="geometry" />
        </mxCell>
        <mxCell id="EttusDQc6cs6hr2crV58-70" value="Results" style="rounded=1;whiteSpace=wrap;html=1;fillColor=#fff2cc;strokeColor=#d6b656;" parent="1" vertex="1">
          <mxGeometry x="264" y="1080" width="120" height="60" as="geometry" />
        </mxCell>
        <mxCell id="EttusDQc6cs6hr2crV58-74" style="edgeStyle=orthogonalEdgeStyle;rounded=0;orthogonalLoop=1;jettySize=auto;html=1;exitX=0;exitY=0.5;exitDx=0;exitDy=0;entryX=1;entryY=0.5;entryDx=0;entryDy=0;" parent="1" source="EttusDQc6cs6hr2crV58-72" target="EttusDQc6cs6hr2crV58-21" edge="1">
          <mxGeometry relative="1" as="geometry" />
        </mxCell>
        <mxCell id="EttusDQc6cs6hr2crV58-72" value="Data SAIL&lt;br&gt;&lt;font style=&quot;font-size: 10px;&quot;&gt;(Data Split Against Information Leakage)&lt;/font&gt;" style="rounded=1;whiteSpace=wrap;html=1;fillColor=#fff2cc;strokeColor=#d6b656;" parent="1" vertex="1">
          <mxGeometry x="444" y="720" width="120" height="60" as="geometry" />
        </mxCell>
        <mxCell id="hFegTtOwy7nXW7bJ5HmI-3" style="edgeStyle=orthogonalEdgeStyle;rounded=0;orthogonalLoop=1;jettySize=auto;html=1;entryX=0.5;entryY=0;entryDx=0;entryDy=0;" parent="1" source="hFegTtOwy7nXW7bJ5HmI-1" target="EttusDQc6cs6hr2crV58-70" edge="1">
          <mxGeometry relative="1" as="geometry" />
        </mxCell>
        <mxCell id="hFegTtOwy7nXW7bJ5HmI-1" value="Feature Importance Analysis" style="rounded=1;whiteSpace=wrap;html=1;fillColor=#fff2cc;strokeColor=#d6b656;" parent="1" vertex="1">
          <mxGeometry x="264" y="1000" width="120" height="60" as="geometry" />
        </mxCell>
        <mxCell id="hFegTtOwy7nXW7bJ5HmI-9" style="edgeStyle=orthogonalEdgeStyle;rounded=0;orthogonalLoop=1;jettySize=auto;html=1;entryX=0.5;entryY=0;entryDx=0;entryDy=0;" parent="1" source="hFegTtOwy7nXW7bJ5HmI-8" target="acNoMvWJMsMCijYzbIam-1" edge="1">
          <mxGeometry relative="1" as="geometry" />
        </mxCell>
        <mxCell id="hFegTtOwy7nXW7bJ5HmI-10" style="edgeStyle=orthogonalEdgeStyle;rounded=0;orthogonalLoop=1;jettySize=auto;html=1;exitX=1;exitY=0.5;exitDx=0;exitDy=0;entryX=0.5;entryY=0;entryDx=0;entryDy=0;" parent="1" source="hFegTtOwy7nXW7bJ5HmI-8" target="EttusDQc6cs6hr2crV58-1" edge="1">
          <mxGeometry relative="1" as="geometry" />
        </mxCell>
        <mxCell id="hFegTtOwy7nXW7bJ5HmI-8" value="Genomic Fasta Files" style="rounded=1;whiteSpace=wrap;html=1;fillColor=#fff2cc;strokeColor=#d6b656;" parent="1" vertex="1">
          <mxGeometry x="379" y="80" width="120" height="60" as="geometry" />
        </mxCell>
      </root>
    </mxGraphModel>
  </diagram>
</mxfile>
